REM DIRINDEX 1\2,1\3,1\4,1\5,1\6
REM DIRNAME folder01,folder02,folder03,folder04,folder05,folder06
TITLE ""
FILE "CD1-64.mp3" MP3
  TRACK 01 AUDIO
    TITLE "6:cjc091_1236"
    INDEX 01 00:00:00
  TRACK 02 AUDIO
    TITLE "0:"
    INDEX 01 00:01:52
  TRACK 03 AUDIO
    TITLE "2:cjc091_1237"
    INDEX 01 00:03:02
  TRACK 04 AUDIO
    TITLE "0:"
    INDEX 01 00:04:44
  TRACK 05 AUDIO
    TITLE "3:cjc091_1238"
    INDEX 01 00:04:62
  TRACK 06 AUDIO
    TITLE "0:"
    INDEX 01 00:06:51
  TRACK 07 AUDIO
    TITLE "4:cjc091_1239"
    INDEX 01 00:07:03
  TRACK 08 AUDIO
    TITLE "0:"
    INDEX 01 00:09:59
  TRACK 09 AUDIO
    TITLE "2:cjc091_1240"
    INDEX 01 00:10:74
  TRACK 10 AUDIO
    TITLE "0:"
    INDEX 01 00:12:09
  TRACK 11 AUDIO
    TITLE "3:cjc091_1241"
    INDEX 01 00:12:24
  TRACK 12 AUDIO
    TITLE "0:"
    INDEX 01 00:13:43
  TRACK 13 AUDIO
    TITLE "4:cjc091_1242"
    INDEX 01 00:13:69
  TRACK 14 AUDIO
    TITLE "0:"
    INDEX 01 00:17:00
  TRACK 15 AUDIO
    TITLE "2:cjc091_1243"
    INDEX 01 00:18:17
  TRACK 16 AUDIO
    TITLE "0:"
    INDEX 01 00:19:58
  TRACK 17 AUDIO
    TITLE "3:cjc091_1244"
    INDEX 01 00:19:60
  TRACK 18 AUDIO
    TITLE "0:"
    INDEX 01 00:20:57
  TRACK 19 AUDIO
    TITLE "4:cjc091_1245"
    INDEX 01 00:21:06
  TRACK 20 AUDIO
    TITLE "0:"
    INDEX 01 00:25:72
  TRACK 21 AUDIO
    TITLE "2:cjc091_1246"
    INDEX 01 00:27:08
  TRACK 22 AUDIO
    TITLE "0:"
    INDEX 01 00:28:45
  TRACK 23 AUDIO
    TITLE "3:cjc091_1247"
    INDEX 01 00:28:53
  TRACK 24 AUDIO
    TITLE "0:"
    INDEX 01 00:29:58
  TRACK 25 AUDIO
    TITLE "4:cjc091_1248"
    INDEX 01 00:30:03
  TRACK 26 AUDIO
    TITLE "0:"
    INDEX 01 00:34:10
  TRACK 27 AUDIO
    TITLE "2:cjc091_1249"
    INDEX 01 00:35:23
  TRACK 28 AUDIO
    TITLE "0:"
    INDEX 01 00:36:31
  TRACK 29 AUDIO
    TITLE "3:cjc091_1250"
    INDEX 01 00:36:33
  TRACK 30 AUDIO
    TITLE "0:"
    INDEX 01 00:37:22
  TRACK 31 AUDIO
    TITLE "4:cjc091_1251"
    INDEX 01 00:37:46
  TRACK 32 AUDIO
    TITLE "0:"
    INDEX 01 00:41:10
  TRACK 33 AUDIO
    TITLE "2:cjc091_1252"
    INDEX 01 00:42:25
  TRACK 34 AUDIO
    TITLE "0:"
    INDEX 01 00:43:72
  TRACK 35 AUDIO
    TITLE "3:cjc091_1253"
    INDEX 01 00:44:09
  TRACK 36 AUDIO
    TITLE "0:"
    INDEX 01 00:46:21
  TRACK 37 AUDIO
    TITLE "4:cjc091_1254"
    INDEX 01 00:46:47
  TRACK 38 AUDIO
    TITLE "0:"
    INDEX 01 00:50:15
  TRACK 39 AUDIO
    TITLE "2:cjc091_1255"
    INDEX 01 00:51:26
  TRACK 40 AUDIO
    TITLE "0:"
    INDEX 01 00:52:63
  TRACK 41 AUDIO
    TITLE "3:cjc091_1256"
    INDEX 01 00:53:02
  TRACK 42 AUDIO
    TITLE "0:"
    INDEX 01 00:54:40
  TRACK 43 AUDIO
    TITLE "4:cjc091_1257"
    INDEX 01 00:54:60
  TRACK 44 AUDIO
    TITLE "0:"
    INDEX 01 00:58:48
  TRACK 45 AUDIO
    TITLE "2:cjc091_1258"
    INDEX 01 00:59:63
  TRACK 46 AUDIO
    TITLE "0:"
    INDEX 01 01:01:03
  TRACK 47 AUDIO
    TITLE "3:cjc091_1259"
    INDEX 01 01:01:17
  TRACK 48 AUDIO
    TITLE "0:"
    INDEX 01 01:03:00
  TRACK 49 AUDIO
    TITLE "4:cjc091_1260"
    INDEX 01 01:03:29
  TRACK 50 AUDIO
    TITLE "0:"
    INDEX 01 01:06:34
  TRACK 51 AUDIO
    TITLE "2:cjc091_1261"
    INDEX 01 01:07:41
  TRACK 52 AUDIO
    TITLE "0:"
    INDEX 01 01:09:01
  TRACK 53 AUDIO
    TITLE "3:cjc091_1262"
    INDEX 01 01:09:10
  TRACK 54 AUDIO
    TITLE "0:"
    INDEX 01 01:10:69
  TRACK 55 AUDIO
    TITLE "4:cjc091_1263"
    INDEX 01 01:11:15
  TRACK 56 AUDIO
    TITLE "0:"
    INDEX 01 01:13:57
  TRACK 57 AUDIO
    TITLE "2:cjc091_1264"
    INDEX 01 01:14:66
  TRACK 58 AUDIO
    TITLE "0:"
    INDEX 01 01:16:34
  TRACK 59 AUDIO
    TITLE "3:cjc091_1265"
    INDEX 01 01:16:50
  TRACK 60 AUDIO
    TITLE "0:"
    INDEX 01 01:18:51
  TRACK 61 AUDIO
    TITLE "4:cjc091_1266"
    INDEX 01 01:19:03
  TRACK 62 AUDIO
    TITLE "0:"
    INDEX 01 01:22:60
  TRACK 63 AUDIO
    TITLE "2:cjc091_1267"
    INDEX 01 01:24:00
  TRACK 64 AUDIO
    TITLE "0:"
    INDEX 01 01:25:66
  TRACK 65 AUDIO
    TITLE "3:cjc091_1268"
    INDEX 01 01:25:74
  TRACK 66 AUDIO
    TITLE "0:"
    INDEX 01 01:28:25
  TRACK 67 AUDIO
    TITLE "4:cjc091_1269"
    INDEX 01 01:28:45
  TRACK 68 AUDIO
    TITLE "0:"
    INDEX 01 01:32:06
  TRACK 69 AUDIO
    TITLE "2:cjc091_1270"
    INDEX 01 01:33:19
  TRACK 70 AUDIO
    TITLE "0:"
    INDEX 01 01:34:42
  TRACK 71 AUDIO
    TITLE "3:cjc091_1271"
    INDEX 01 01:34:69
  TRACK 72 AUDIO
    TITLE "0:"
    INDEX 01 01:36:39
  TRACK 73 AUDIO
    TITLE "4:cjc091_1272"
    INDEX 01 01:36:66
  TRACK 74 AUDIO
    TITLE "0:"
    INDEX 01 01:39:66
  TRACK 75 AUDIO
    TITLE "2:cjc091_1273"
    INDEX 01 01:41:01
  TRACK 76 AUDIO
    TITLE "0:"
    INDEX 01 01:42:16
  TRACK 77 AUDIO
    TITLE "3:cjc091_1274"
    INDEX 01 01:42:26
  TRACK 78 AUDIO
    TITLE "0:"
    INDEX 01 01:43:31
  TRACK 79 AUDIO
    TITLE "4:cjc091_1275"
    INDEX 01 01:43:52
  TRACK 80 AUDIO
    TITLE "0:"
    INDEX 01 01:46:51
  TRACK 81 AUDIO
    TITLE "2:cjc091_1276"
    INDEX 01 01:47:64
  TRACK 82 AUDIO
    TITLE "0:"
    INDEX 01 01:49:04
  TRACK 83 AUDIO
    TITLE "3:cjc091_1277"
    INDEX 01 01:49:16
  TRACK 84 AUDIO
    TITLE "0:"
    INDEX 01 01:51:03
  TRACK 85 AUDIO
    TITLE "4:cjc091_1278"
    INDEX 01 01:51:23
  TRACK 86 AUDIO
    TITLE "0:"
    INDEX 01 01:53:74
  TRACK 87 AUDIO
    TITLE "2:cjc091_1279"
    INDEX 01 01:55:09
  TRACK 88 AUDIO
    TITLE "0:"
    INDEX 01 01:56:37
  TRACK 89 AUDIO
    TITLE "3:cjc091_1280"
    INDEX 01 01:56:61
  TRACK 90 AUDIO
    TITLE "0:"
    INDEX 01 01:58:27
  TRACK 91 AUDIO
    TITLE "4:cjc091_1281"
    INDEX 01 01:58:50
  TRACK 92 AUDIO
    TITLE "0:"
    INDEX 01 02:02:20
